# xmcd
#
# Track frame offsets:
#	150
#	18222
#	37322
#
# Disc length: 831 seconds
#
# Revision: 0
# Processed by: cddbd v1.5.2PL0 Copyright (c) Steve Scherf et al.
# Submitted via: audiograbber 1.83.01
#
DISCID=1e033d03
DTITLE=Q-Me - Huvipuisto [CDM)
DYEAR=1997
DGENRE=Dance
TTITLE0=Huvipuisto (Radio Version)
TTITLE1=Huvipuisto (Jaakon Remix)
TTITLE2=Huvipuisto (Extended Mix)
EXTD=TR.
EXTT0=
EXTT1=
EXTT2=
PLAYORDER=
